<?xml version="1.0" standalone="no"?>
<!DOCTYPE svg PUBLIC "-//W3C//DTD SVG 20010904//EN"
 "http://www.w3.org/TR/2001/REC-SVG-20010904/DTD/svg10.dtd">
<svg version="1.0" xmlns="http://www.w3.org/2000/svg"
 width="588.000000pt" height="588.000000pt" viewBox="0 0 588.000000 588.000000"
 preserveAspectRatio="xMidYMid meet">
<metadata>
Created by potrace 1.14, written by Peter Selinger 2001-2017
</metadata>
<g transform="translate(0.000000,588.000000) scale(0.100000,-0.100000)"
fill="#000000" stroke="none">
<path d="M2735 5840 c-167 -12 -417 -52 -439 -71 -8 -7 16 -135 28 -146 3 -3
56 4 118 16 186 35 316 44 558 38 236 -6 365 -21 540 -62 269 -64 586 -196
814 -337 226 -140 494 -371 663 -573 419 -498 651 -1170 630 -1822 l-6 -182
47 -6 c123 -15 109 -20 116 38 11 94 6 382 -9 523 -20 196 -71 437 -127 598
-146 430 -356 782 -648 1089 -510 536 -1195 854 -1932 897 -188 11 -191 11
-353 0z"/>
<path d="M2790 5554 c-200 -17 -419 -50 -435 -66 -3 -3 3 -38 12 -79 l18 -75
40 8 c198 42 560 60 755 39 442 -48 833 -203 1225 -485 14 -11 30 4 82 77 l27
39 -24 19 c-74 57 -235 158 -347 219 -264 144 -573 244 -883 284 -117 15 -389
27 -470 20z"/>
<path d="M1411 5418 c-255 -155 -553 -418 -743 -658 -260 -327 -437 -685 -544
-1100 -36 -139 -76 -368 -65 -374 3 -2 40 -6 81 -8 l74 -3 12 81 c16 110 50
257 90 391 189 627 614 1181 1173 1527 l111 68 -37 69 c-20 38 -40 69 -43 69
-3 0 -52 -28 -109 -62z"/>
<path d="M2680 5250 c-481 -60 -908 -246 -1266 -553 -435 -373 -730 -941 -784
-1512 -64 -684 168 -1344 644 -1833 194 -200 385 -338 641 -462 502 -245 1035
-301 1576 -165 457 115 885 382 1186 740 283 336 471 754 529 1176 21 152 23
453 5 594 -64 510 -287 968 -650 1338 -346 353 -762 569 -1266 658 -137 24
-486 34 -615 19z"/>
<path d="M749 4377 c-224 -347 -357 -716 -410 -1137 -17 -138 -15 -451 5 -597
16 -121 40 -250 48 -258 2 -3 20 0 39 5 19 5 52 13 75 19 l41 11 -18 92 c-44
228 -50 584 -15 812 54 344 189 693 376 972 l67 100 -55 40 c-31 21 -61 42
-68 46 -8 5 -36 -29 -85 -105z"/>
<path d="M5362 3512 c-48 -12 -61 -19 -57 -31 19 -64 46 -295 52 -441 12 -346
-43 -663 -169 -980 -188 -475 -513 -868 -955 -1157 l-120 -79 32 -58 c18 -31
37 -62 43 -68 23 -23 316 183 502 354 449 410 744 994 816 1614 27 233 12 578
-36 808 -13 63 -11 62 -108 38z"/>
<path d="M180 2333 c-36 -8 -66 -16 -68 -18 -15 -14 118 -413 193 -576 140
-306 373 -632 613 -859 467 -443 1028 -710 1662 -791 158 -21 574 -18 720 5
634 97 1116 323 1576 738 118 106 232 229 328 354 27 35 47 66 45 68 -42 33
-118 86 -125 86 -5 0 -21 -17 -36 -38 -62 -88 -253 -295 -344 -374 -285 -243
-515 -387 -804 -501 -1022 -403 -2160 -172 -2936 598 -336 334 -575 738 -701
1187 -21 76 -42 137 -48 137 -5 0 -39 -8 -75 -16z"/>
<path d="M753 1700 c-34 -19 -65 -39 -69 -42 -9 -9 73 -142 155 -253 410 -550
1021 -913 1721 -1022 160 -25 555 -24 724 1 157 23 218 37 213 50 -2 6 -10 42
-18 79 l-13 69 -31 -7 c-298 -63 -595 -71 -890 -24 -692 110 -1310 515 -1677
1100 l-53 85 -62 -36z"/>
</g>
</svg>
